<svg height='100px' width='100px'  fill="#ffffff" xmlns="http://www.w3.org/2000/svg" data-name="Layer 3" viewBox="0 0 64 64" x="0px" y="0px"><path d="M62,55H53l0-16.68a5,5,0,0,0-4.078-4.914L37,31.17V28.647A10.026,10.026,0,0,0,41.8,22H43a3,3,0,0,0,0-6h-.919l.981-2.271A8.081,8.081,0,0,0,38.991,3.177L36.2,1.907a10.252,10.252,0,0,0-10.232,1.11L24.392,4.2l0,0a6.223,6.223,0,0,0-4.012,8.812L21.875,16H21a3,3,0,0,0,0,6h1.2A10.022,10.022,0,0,0,27,28.646V31.17L15.078,33.405A5,5,0,0,0,11,38.319V55H2a1,1,0,0,0-1,1v6a1,1,0,0,0,1,1H62a1,1,0,0,0,1-1V56A1,1,0,0,0,62,55ZM21,51h3a1,1,0,0,1,1,1v2a1,1,0,0,1-1,1H21Zm3-2H21V38.28l10,2.5V55H26.814A2.966,2.966,0,0,0,27,54V52A3,3,0,0,0,24,49Zm9-8.219,10-2.5V49H40a3,3,0,0,0-3,3v2a2.96,2.96,0,0,0,.184,1H33ZM39,54V52a1,1,0,0,1,1-1h3v4H39.995A1,1,0,0,1,39,54Zm6-5h6v6H45ZM44,19a1,1,0,0,1-1,1H42V18h1A1,1,0,0,1,44,19ZM22.327,8.053A4.247,4.247,0,0,1,25.952,6a4.669,4.669,0,0,1,3.894,2.083l.313.471,1.665-1.109-.314-.471A6.655,6.655,0,0,0,27.738,4.25a8.224,8.224,0,0,1,7.634-.523L38.162,5a6.079,6.079,0,0,1,3.063,7.939l-.3.687-1.035-2.07a1,1,0,0,0-.664-.527,1.013,1.013,0,0,0-.831.174l-1.6,1.2a8,8,0,0,1-9.6,0l-1.6-1.2a1,1,0,0,0-1.5.353L23,13.771l-.825-1.652A4.2,4.2,0,0,1,22.327,8.053ZM20,19a1,1,0,0,1,1-1h1v2H21A1,1,0,0,1,20,19Zm4,1V16.236l1.358-2.717L26,14a10,10,0,0,0,12,0l.641-.481L40,16.236V20a8,8,0,1,1-16,0Zm8,10a9.973,9.973,0,0,0,3-.461v2.046l-3,3-3-3V29.538A9.961,9.961,0,0,0,32,30ZM15.446,35.371,27.665,33.08l3.628,3.627a1,1,0,0,0,1.414,0l3.626-3.627,12.219,2.291A3,3,0,0,1,51,38.319V47H45V37a1,1,0,0,0-1.243-.971L32,38.969l-11.757-2.94A1,1,0,0,0,19,37V47H13V38.319A3,3,0,0,1,15.446,35.371ZM13,49h6v6H13ZM61,61H3V57H61Z"></path><path d="M28.5,17A1.5,1.5,0,1,0,30,18.5,1.5,1.5,0,0,0,28.5,17Z"></path><path d="M35.5,20A1.5,1.5,0,1,0,34,18.5,1.5,1.5,0,0,0,35.5,20Z"></path><rect x="29.999" y="24" width="3.999" height="2"></rect></svg>