<svg height='100px' width='100px'  fill="#ffffff" xmlns="http://www.w3.org/2000/svg" xmlns:xlink="http://www.w3.org/1999/xlink" version="1.1" x="0px" y="0px" viewBox="0 0 69 69" style="enable-background:new 0 0 69 69;" xml:space="preserve"><g><path d="M66.71948,64.00391H46.9812v-1.91113c0-1.72266-1.40234-3.125-3.125-3.125h-8.38379v-5.66589   c10.41699-0.52576,18.73633-9.14038,18.73633-19.68567V14.87988c0-0.55225-0.44727-1-1-1s-1,0.44775-1,1v18.73633   c0,9.77979-7.95605,17.73633-17.73633,17.73633c-9.7793,0-17.73584-7.95654-17.73584-17.73633V14.87988c0-0.55225-0.44775-1-1-1   s-1,0.44775-1,1v18.73633c0,10.54529,8.31891,19.15991,18.73584,19.68567v5.66589H25.0896c-1.72266,0-3.125,1.40234-3.125,3.125   v1.91113H2.28052c-0.55225,0-1,0.44727-1,1s0.44775,1,1,1c23.71204,0,41.64156,0,64.43896,0c0.55273,0,1-0.44727,1-1   S67.27222,64.00391,66.71948,64.00391z M23.9646,64.00391v-1.91113c0-0.62012,0.50488-1.125,1.125-1.125h18.7666   c0.62012,0,1.125,0.50488,1.125,1.125v1.91113H23.9646z"></path><path d="M33.78003,47.33594c7.80624,0.38869,14.42871-5.82484,14.42871-13.71973c0.0005-1.73834-0.00181,6.29724,0.00488-17.00098   c0-8.49887-6.29556-13.61914-13.73438-13.61914c-0.00195,0-0.00391,0-0.00586,0   c-6.82813,0.00293-13.73926,4.68213-13.73926,13.61914c0.0002,1.70079-0.00072-6.16033,0.00195,16.63135   C20.73608,40.78564,26.46558,46.97461,33.78003,47.33594z M46.20874,33.61621c0,6.72706-5.65264,12.06889-12.3291,11.72168   c-6.24902-0.30859-11.14355-5.61963-11.14355-12.09131v-3.75781h23.47266V33.61621z M22.73413,16.61523   c0-7.97949,6.08594-11.6167,11.73926-11.61914c0.00195,0,0.00391,0,0.00586,0c6.38807,0,11.73438,4.27036,11.73438,11.61914   v10.87012H22.73413V16.61523z"></path><path d="M29.8894,9.76758h-3.58398c-0.55273,0-1,0.44775-1,1s0.44727,1,1,1h3.58398c0.55273,0,1-0.44775,1-1   S30.44214,9.76758,29.8894,9.76758z"></path><path d="M42.6394,9.76758h-3.58398c-0.55273,0-1,0.44775-1,1s0.44727,1,1,1h3.58398c0.55273,0,1-0.44775,1-1   S43.19214,9.76758,42.6394,9.76758z"></path><path d="M29.8894,15.18408h-3.58398c-0.55273,0-1,0.44775-1,1s0.44727,1,1,1h3.58398c0.55273,0,1-0.44775,1-1   S30.44214,15.18408,29.8894,15.18408z"></path><path d="M42.6394,15.18408h-3.58398c-0.55273,0-1,0.44775-1,1s0.44727,1,1,1h3.58398c0.55273,0,1-0.44775,1-1   S43.19214,15.18408,42.6394,15.18408z"></path><path d="M29.8894,20.60107h-3.58398c-0.55273,0-1,0.44775-1,1s0.44727,1,1,1h3.58398c0.55273,0,1-0.44775,1-1   S30.44214,20.60107,29.8894,20.60107z"></path><path d="M42.6394,20.60107h-3.58398c-0.55273,0-1,0.44775-1,1s0.44727,1,1,1h3.58398c0.55273,0,1-0.44775,1-1   S43.19214,20.60107,42.6394,20.60107z"></path><path d="M58.78979,37.42041V22.65527c0-0.55225-0.44727-1-1-1c-0.55273,0-1,0.44775-1,1v14.76514c0,0.55225,0.44727,1,1,1   C58.34253,38.42041,58.78979,37.97266,58.78979,37.42041z"></path><path d="M65.2937,43.25391V28.48877c0-0.55225-0.44727-1-1-1s-1,0.44775-1,1v14.76514c0,0.55225,0.44727,1,1,1   S65.2937,43.80615,65.2937,43.25391z"></path><path d="M5.60815,36.70508V21.93994c0-0.55225-0.44775-1-1-1s-1,0.44775-1,1v14.76514c0,0.55225,0.44775,1,1,1   S5.60815,37.25732,5.60815,36.70508z"></path><path d="M12.11206,42.53857V27.77344c0-0.55225-0.44775-1-1-1s-1,0.44775-1,1v14.76514c0,0.55225,0.44775,1,1,1   S12.11206,43.09082,12.11206,42.53857z"></path></g></svg>