<svg height='100px' width='100px'  fill="#ffffff" xmlns="http://www.w3.org/2000/svg" xmlns:xlink="http://www.w3.org/1999/xlink" version="1.1" x="0px" y="0px" viewBox="0 0 100 100" style="enable-background:new 0 0 100 100;" xml:space="preserve"><path d="M27.2,89V71.2C13.5,65.6,5,55.1,5,43.7C5,26.2,24.7,12,49,12s44,14.2,44,31.7S73.3,75.4,49,75.4c-2.5,0-5.1-0.2-7.7-0.5  L27.2,89z M49,15C26.4,15,8,27.9,8,43.7c0,10.4,8.1,20,21.2,25.1l1,0.4v12.6l10-10l0.7,0.1c2.7,0.4,5.4,0.6,8,0.6  c22.6,0,41-12.9,41-28.7C90,27.9,71.6,15,49,15z"></path></svg>