<svg height='100px' width='100px'  fill="#ffffff" xmlns:dc="http://purl.org/dc/elements/1.1/" xmlns:cc="http://creativecommons.org/ns#" xmlns:rdf="http://www.w3.org/1999/02/22-rdf-syntax-ns#" xmlns:svg="http://www.w3.org/2000/svg" xmlns="http://www.w3.org/2000/svg" xmlns:sodipodi="http://sodipodi.sourceforge.net/DTD/sodipodi-0.dtd" xmlns:inkscape="http://www.inkscape.org/namespaces/inkscape" viewBox="0 0 135.46666 135.46666" version="1.1" x="0px" y="0px"><g transform="translate(0,-161.53335)"><path style="color:#000000;font-style:normal;font-variant:normal;font-weight:normal;font-stretch:normal;font-size:medium;line-height:normal;font-family:sans-serif;font-variant-ligatures:normal;font-variant-position:normal;font-variant-caps:normal;font-variant-numeric:normal;font-variant-alternates:normal;font-feature-settings:normal;text-indent:0;text-align:start;text-decoration:none;text-decoration-line:none;text-decoration-style:solid;text-decoration-color:#000000;letter-spacing:normal;word-spacing:normal;text-transform:none;writing-mode:lr-tb;direction:ltr;text-orientation:mixed;dominant-baseline:auto;baseline-shift:baseline;text-anchor:start;white-space:normal;shape-padding:0;clip-rule:nonzero;display:inline;overflow:visible;visibility:visible;opacity:1;isolation:auto;mix-blend-mode:normal;color-interpolation:sRGB;color-interpolation-filters:linearRGB;solid-color:#000000;solid-opacity:1;vector-effect:none;fill:#ffffff;fill-opacity:1;fill-rule:nonzero;stroke:none;stroke-width:4.41762733;stroke-linecap:round;stroke-linejoin:round;stroke-miterlimit:4;stroke-dasharray:none;stroke-dashoffset:0;stroke-opacity:1;color-rendering:auto;image-rendering:auto;shape-rendering:auto;text-rendering:auto;enable-background:accumulate" d="m 23.339663,189.21202 c -5.754661,0 -10.455177,4.70051 -10.455177,10.45517 v 59.1969 c 0,5.75471 4.700526,10.45725 10.455177,10.45725 h 88.785287 c 5.75463,0 10.45723,-4.70254 10.45723,-10.45725 v -59.1969 c 0,-5.75466 -4.7026,-10.45517 -10.45723,-10.45517 z m 0,4.4178 h 8.090461 l -7.008357,12.13673 h -7.121012 v -6.09936 c 0,-3.3837 2.655197,-6.03737 6.038908,-6.03737 z m 13.192477,0 h 13.238471 l -7.00681,12.13673 H 29.52378 Z m 18.339961,0 h 13.23795 l -7.0068,12.13673 h -13.2395 z m 18.33997,0 h 13.23795 l -7.0068,12.13673 h -13.23951 z m 18.33944,0 h 13.238479 l -7.006799,12.13673 h -13.23952 z m 18.339959,0 h 2.23348 c 3.3837,0 6.0389,2.65367 6.0389,6.03737 v 6.09936 h -7.62074 a 2.2090345,2.2090345 0 1 0 0,4.41783 h 7.62074 v 48.67971 c 0,3.3837 -2.6552,6.03943 -6.0389,6.03943 H 23.339663 c -3.383722,0 -6.038908,-2.65573 -6.038908,-6.03943 v -48.67971 h 81.316476 a 2.2090345,2.2090345 0 0 0 0.75449,-0.13023 2.2090345,2.2090345 0 0 0 1.694469,-1.14102 z m -55.132019,24.04607 c -0.24878,-0.003 -0.50911,0.0159 -0.77101,0.0579 v 0 c -0.69841,0.11239 -1.40811,0.3983 -1.94149,0.93173 a 2.2090345,2.2090345 0 0 0 -0.64854,1.56064 v 35.54873 a 2.2090345,2.2090345 0 0 0 0.64854,1.56268 c 1.07109,1.07111 2.85987,1.12591 3.82199,0.81029 0.96213,-0.3156 1.60099,-0.74605 2.04122,-0.96065 a 2.2090345,2.2090345 0 0 0 0.0486,-0.0249 l 29.91808,-15.5081 0.003,-0.003 c 1.57207,-0.76811 2.11648,-2.33487 2.11304,-3.64628 -0.003,-1.3122 -0.5316,-2.83633 -2.06809,-3.63286 l -29.96547,-15.53304 v 0.003 c -0.47054,-0.24424 -1.12227,-0.69147 -2.09755,-1.00407 -0.30477,-0.0977 -0.6871,-0.15746 -1.10174,-0.16124 z m 1.05678,5.03021 c 0.0508,0.0265 0.0551,0.0276 0.10749,0.0548 a 2.2090345,2.2090345 0 0 0 0.002,0 l 29.3982,15.23833 -29.3982,15.2399 c -0.0534,0.0262 -0.0582,0.0292 -0.10955,0.0548 z"></path></g></svg>